<?xml version="1.0" encoding="utf-8"?>
<!-- Generator: Adobe Illustrator 16.0.0, SVG Export Plug-In . SVG Version: 6.00 Build 0)  -->
<!DOCTYPE svg PUBLIC "-//W3C//DTD SVG 1.1//EN" "http://www.w3.org/Graphics/SVG/1.1/DTD/svg11.dtd">
<svg version="1.1" id="Layer_1" xmlns="http://www.w3.org/2000/svg" xmlns:xlink="http://www.w3.org/1999/xlink" x="0px" y="0px"
	 width="327px" height="292px" viewBox="0 0 327 292" enable-background="new 0 0 327 292" xml:space="preserve">
<g>
	<polygon fill="#005162" points="221.961,187.714 132.369,187.868 139.961,173.464 144.73,170.413 189.225,156.416 216.711,175.964 
		221.961,182.714 	"/>
	<path fill="#83AE66" d="M164.961,78.713l57,98.75c0,0,8.25,10,0,10.25l-68.25-65.25l-5.5-18.25l9.5-18.5
		C157.711,85.713,162.878,73.296,164.961,78.713"/>
	<path fill="#0C907D" d="M160.336,79.855l-59.625,102.502c0,0-2.5,5.662,6,5.508h34.25l13.788-63.388
		C154.749,124.478,172.461,61.943,160.336,79.855"/>
	<text transform="matrix(1 0 0 1 96.9272 208.6309)"><tspan x="0" y="0" fill="#83AE66" font-family="'Rubik-Bold'" font-size="23">A</tspan><tspan x="16.514" y="0" fill="#83AE66" font-family="'Rubik-Bold'" font-size="23">be -</tspan><tspan x="60.604" y="0" fill="#83AE66" font-family="'Rubik-Bold'" font-size="23"> </tspan><tspan x="64.513" y="0" fill="#83AE66" font-family="'Rubik-Bold'" font-size="23" letter-spacing="-1">T</tspan><tspan x="77.508" y="0" fill="#83AE66" font-family="'Rubik-Bold'" font-size="23">elmo</tspan></text>
</g>
</svg>
